<mxfile host="www.draw.io" modified="2019-11-08T06:43:41.892Z" agent="Mozilla/5.0 (Macintosh; Intel Mac OS X 10_14_4) AppleWebKit/537.36 (KHTML, like Gecko) Chrome/78.0.3904.87 Safari/537.36" etag="aHiqCOdEuc_3gFn9Ixz7" version="12.2.2" type="github" pages="1">
  <diagram id="7qQGDle6O2vdGc53Efqy" name="Page-1">
    <mxGraphModel dx="1599" dy="460" grid="1" gridSize="10" guides="1" tooltips="1" connect="1" arrows="1" fold="1" page="1" pageScale="1" pageWidth="827" pageHeight="1169" math="0" shadow="0">
      <root>
        <mxCell id="0"/>
        <mxCell id="1" parent="0"/>
        <mxCell id="jlQFmWTJAvyXNpv4kBAW-1" value="Client" style="rounded=1;whiteSpace=wrap;html=1;" parent="1" vertex="1">
          <mxGeometry x="20" y="20" width="120" height="60" as="geometry"/>
        </mxCell>
        <mxCell id="jlQFmWTJAvyXNpv4kBAW-2" value="Sever" style="rounded=1;whiteSpace=wrap;html=1;" parent="1" vertex="1">
          <mxGeometry x="360" y="20" width="120" height="60" as="geometry"/>
        </mxCell>
        <mxCell id="jlQFmWTJAvyXNpv4kBAW-3" value="" style="endArrow=none;dashed=1;html=1;entryX=0.5;entryY=1;entryDx=0;entryDy=0;" parent="1" target="jlQFmWTJAvyXNpv4kBAW-1" edge="1">
          <mxGeometry width="50" height="50" relative="1" as="geometry">
            <mxPoint x="80" y="1084" as="sourcePoint"/>
            <mxPoint x="70" y="100" as="targetPoint"/>
          </mxGeometry>
        </mxCell>
        <mxCell id="jlQFmWTJAvyXNpv4kBAW-4" value="" style="endArrow=none;dashed=1;html=1;entryX=0.5;entryY=1;entryDx=0;entryDy=0;" parent="1" target="jlQFmWTJAvyXNpv4kBAW-2" edge="1">
          <mxGeometry width="50" height="50" relative="1" as="geometry">
            <mxPoint x="420" y="1071" as="sourcePoint"/>
            <mxPoint x="90" y="90" as="targetPoint"/>
          </mxGeometry>
        </mxCell>
        <mxCell id="jlQFmWTJAvyXNpv4kBAW-5" value="" style="endArrow=classic;html=1;" parent="1" edge="1">
          <mxGeometry width="50" height="50" relative="1" as="geometry">
            <mxPoint x="80" y="110" as="sourcePoint"/>
            <mxPoint x="420" y="160" as="targetPoint"/>
          </mxGeometry>
        </mxCell>
        <mxCell id="jlQFmWTJAvyXNpv4kBAW-6" value="&lt;span style=&quot;color: rgb(84 , 84 , 84) ; font-family: &amp;#34;arial&amp;#34; , sans-serif ; font-size: 14px ; text-align: left ; white-space: normal&quot;&gt;①&amp;nbsp;&lt;/span&gt;SYN seq= client_isn" style="text;html=1;resizable=0;points=[];align=center;verticalAlign=middle;labelBackgroundColor=#ffffff;direction=west;rotation=10;" parent="jlQFmWTJAvyXNpv4kBAW-5" vertex="1" connectable="0">
          <mxGeometry x="-0.0132" y="2" relative="1" as="geometry">
            <mxPoint x="71.5" y="-3" as="offset"/>
          </mxGeometry>
        </mxCell>
        <mxCell id="jlQFmWTJAvyXNpv4kBAW-7" value="" style="endArrow=classic;html=1;" parent="1" edge="1">
          <mxGeometry width="50" height="50" relative="1" as="geometry">
            <mxPoint x="420" y="200" as="sourcePoint"/>
            <mxPoint x="80" y="240" as="targetPoint"/>
          </mxGeometry>
        </mxCell>
        <mxCell id="jlQFmWTJAvyXNpv4kBAW-9" value="&lt;div style=&quot;text-align: center&quot;&gt;&lt;span style=&quot;color: rgb(84 , 84 , 84) ; font-family: &amp;#34;arial&amp;#34; , sans-serif ; font-size: 14px ; text-align: left ; white-space: normal&quot;&gt;②&amp;nbsp;&lt;/span&gt;SYN,ACK seq= server_isn&lt;/div&gt;&amp;nbsp;ack=client_isn + 1" style="text;html=1;resizable=0;points=[];align=center;verticalAlign=middle;labelBackgroundColor=#ffffff;direction=west;rotation=353;" parent="jlQFmWTJAvyXNpv4kBAW-7" vertex="1" connectable="0">
          <mxGeometry x="0.1167" y="-1" relative="1" as="geometry">
            <mxPoint x="-40" y="-11.5" as="offset"/>
          </mxGeometry>
        </mxCell>
        <mxCell id="jlQFmWTJAvyXNpv4kBAW-10" value="" style="endArrow=classic;html=1;" parent="1" edge="1">
          <mxGeometry width="50" height="50" relative="1" as="geometry">
            <mxPoint x="80" y="290" as="sourcePoint"/>
            <mxPoint x="420" y="350" as="targetPoint"/>
          </mxGeometry>
        </mxCell>
        <mxCell id="OfDiPPnVkdEDQQDzH8xl-4" value="&lt;span style=&quot;color: rgb(84 , 84 , 84) ; font-family: &amp;#34;arial&amp;#34; , sans-serif ; font-size: 14px ; text-align: left ; background-color: rgb(255 , 255 , 255)&quot;&gt;①②③④⑤⑥⑦⑧⑨⑩⑪⑫⑬⑭⑮⑯⑰⑱⑲⑳⓪&lt;/span&gt;" style="text;html=1;strokeColor=none;fillColor=none;align=center;verticalAlign=middle;whiteSpace=wrap;rounded=0;" vertex="1" parent="1">
          <mxGeometry x="230" y="910" width="40" height="20" as="geometry"/>
        </mxCell>
        <mxCell id="jlQFmWTJAvyXNpv4kBAW-13" value="&lt;span style=&quot;color: rgb(84 , 84 , 84) ; font-family: &amp;#34;arial&amp;#34; , sans-serif ; font-size: 14px ; white-space: normal ; background-color: rgb(255 , 255 , 255)&quot;&gt;③&lt;/span&gt;ACK&amp;nbsp;ack=server_isn + 1" style="text;html=1;resizable=0;points=[];autosize=1;align=left;verticalAlign=top;spacingTop=-4;rotation=11;" parent="1" vertex="1">
          <mxGeometry x="240" y="300" width="160" height="20" as="geometry"/>
        </mxCell>
        <mxCell id="jlQFmWTJAvyXNpv4kBAW-15" value="" style="endArrow=classic;html=1;" parent="1" edge="1">
          <mxGeometry width="50" height="50" relative="1" as="geometry">
            <mxPoint x="80" y="350" as="sourcePoint"/>
            <mxPoint x="420" y="410" as="targetPoint"/>
          </mxGeometry>
        </mxCell>
        <mxCell id="jlQFmWTJAvyXNpv4kBAW-16" value="&lt;span style=&quot;color: rgb(84 , 84 , 84) ; font-family: &amp;#34;arial&amp;#34; , sans-serif ; font-size: 14px ; white-space: normal ; background-color: rgb(255 , 255 , 255)&quot;&gt;④&lt;/span&gt;PSH,ACK seq=client_isn+1:client_isn+1 + req_len&lt;br&gt;ack=server_isn + 1" style="text;html=1;resizable=0;points=[];autosize=1;align=left;verticalAlign=top;spacingTop=-4;rotation=11;" parent="1" vertex="1">
          <mxGeometry x="130" y="345" width="300" height="30" as="geometry"/>
        </mxCell>
        <mxCell id="jlQFmWTJAvyXNpv4kBAW-17" value="" style="endArrow=none;html=1;dashed=1;dashPattern=1 1;" parent="1" edge="1">
          <mxGeometry width="50" height="50" relative="1" as="geometry">
            <mxPoint x="510" y="110" as="sourcePoint"/>
            <mxPoint x="20" y="110" as="targetPoint"/>
          </mxGeometry>
        </mxCell>
        <mxCell id="jlQFmWTJAvyXNpv4kBAW-18" value="CLOSED" style="text;html=1;strokeColor=none;fillColor=none;align=center;verticalAlign=middle;whiteSpace=wrap;rounded=0;" parent="1" vertex="1">
          <mxGeometry x="450" y="90" width="40" height="20" as="geometry"/>
        </mxCell>
        <mxCell id="jlQFmWTJAvyXNpv4kBAW-19" value="CLOSED" style="text;html=1;strokeColor=none;fillColor=none;align=center;verticalAlign=middle;whiteSpace=wrap;rounded=0;" parent="1" vertex="1">
          <mxGeometry x="30" y="90" width="30" height="20" as="geometry"/>
        </mxCell>
        <mxCell id="jlQFmWTJAvyXNpv4kBAW-20" value="" style="endArrow=none;html=1;dashed=1;dashPattern=1 1;" parent="1" edge="1">
          <mxGeometry width="50" height="50" relative="1" as="geometry">
            <mxPoint x="520" y="200" as="sourcePoint"/>
            <mxPoint x="420" y="200" as="targetPoint"/>
          </mxGeometry>
        </mxCell>
        <mxCell id="jlQFmWTJAvyXNpv4kBAW-21" value="LISTEN" style="text;html=1;strokeColor=none;fillColor=none;align=center;verticalAlign=middle;whiteSpace=wrap;rounded=0;" parent="1" vertex="1">
          <mxGeometry x="450" y="130" width="40" height="20" as="geometry"/>
        </mxCell>
        <mxCell id="jlQFmWTJAvyXNpv4kBAW-22" value="" style="endArrow=none;html=1;dashed=1;dashPattern=1 1;" parent="1" edge="1">
          <mxGeometry width="50" height="50" relative="1" as="geometry">
            <mxPoint x="80" y="240" as="sourcePoint"/>
            <mxPoint x="20" y="240" as="targetPoint"/>
          </mxGeometry>
        </mxCell>
        <mxCell id="jlQFmWTJAvyXNpv4kBAW-23" value="SYN_SENT" style="text;html=1;strokeColor=none;fillColor=none;align=center;verticalAlign=middle;whiteSpace=wrap;rounded=0;" parent="1" vertex="1">
          <mxGeometry x="30" y="220" width="30" height="20" as="geometry"/>
        </mxCell>
        <mxCell id="jlQFmWTJAvyXNpv4kBAW-24" value="" style="endArrow=none;html=1;dashed=1;dashPattern=1 1;" parent="1" edge="1">
          <mxGeometry width="50" height="50" relative="1" as="geometry">
            <mxPoint x="520" y="350" as="sourcePoint"/>
            <mxPoint x="420" y="350" as="targetPoint"/>
          </mxGeometry>
        </mxCell>
        <mxCell id="jlQFmWTJAvyXNpv4kBAW-25" value="SYN_RCVD" style="text;html=1;strokeColor=none;fillColor=none;align=center;verticalAlign=middle;whiteSpace=wrap;rounded=0;" parent="1" vertex="1">
          <mxGeometry x="450" y="325" width="40" height="20" as="geometry"/>
        </mxCell>
        <mxCell id="jlQFmWTJAvyXNpv4kBAW-26" value="" style="endArrow=none;html=1;dashed=1;dashPattern=1 1;" parent="1" edge="1">
          <mxGeometry width="50" height="50" relative="1" as="geometry">
            <mxPoint x="520" y="450" as="sourcePoint"/>
            <mxPoint x="420" y="450" as="targetPoint"/>
          </mxGeometry>
        </mxCell>
        <mxCell id="jlQFmWTJAvyXNpv4kBAW-27" value="ESTABLISHED" style="text;html=1;strokeColor=none;fillColor=none;align=center;verticalAlign=middle;whiteSpace=wrap;rounded=0;" parent="1" vertex="1">
          <mxGeometry x="450" y="425" width="40" height="20" as="geometry"/>
        </mxCell>
        <mxCell id="jlQFmWTJAvyXNpv4kBAW-31" value="" style="endArrow=none;html=1;dashed=1;dashPattern=1 1;" parent="1" edge="1">
          <mxGeometry width="50" height="50" relative="1" as="geometry">
            <mxPoint x="80" y="350" as="sourcePoint"/>
            <mxPoint x="20" y="350" as="targetPoint"/>
          </mxGeometry>
        </mxCell>
        <mxCell id="jlQFmWTJAvyXNpv4kBAW-32" value="ESTABLISHED" style="text;html=1;strokeColor=none;fillColor=none;align=center;verticalAlign=middle;whiteSpace=wrap;rounded=0;" parent="1" vertex="1">
          <mxGeometry x="20" y="330" width="30" height="20" as="geometry"/>
        </mxCell>
        <mxCell id="jlQFmWTJAvyXNpv4kBAW-33" value="" style="endArrow=classic;html=1;" parent="1" edge="1">
          <mxGeometry width="50" height="50" relative="1" as="geometry">
            <mxPoint x="420" y="450" as="sourcePoint"/>
            <mxPoint x="80" y="490" as="targetPoint"/>
          </mxGeometry>
        </mxCell>
        <mxCell id="jlQFmWTJAvyXNpv4kBAW-34" value="&lt;span style=&quot;color: rgb(84 , 84 , 84) ; font-family: &amp;#34;arial&amp;#34; , sans-serif ; font-size: 14px ; text-align: left ; white-space: normal&quot;&gt;⑤&amp;nbsp;&lt;/span&gt;ACK&amp;nbsp;ack=client_isn + 1 + req_len" style="text;html=1;resizable=0;points=[];align=center;verticalAlign=middle;labelBackgroundColor=#ffffff;direction=west;rotation=353;" parent="jlQFmWTJAvyXNpv4kBAW-33" vertex="1" connectable="0">
          <mxGeometry x="0.1167" y="-1" relative="1" as="geometry">
            <mxPoint x="-40" y="-11.5" as="offset"/>
          </mxGeometry>
        </mxCell>
        <mxCell id="OfDiPPnVkdEDQQDzH8xl-1" value="" style="endArrow=classic;html=1;" edge="1" parent="1">
          <mxGeometry width="50" height="50" relative="1" as="geometry">
            <mxPoint x="420" y="510" as="sourcePoint"/>
            <mxPoint x="80" y="550" as="targetPoint"/>
          </mxGeometry>
        </mxCell>
        <mxCell id="OfDiPPnVkdEDQQDzH8xl-2" value="&lt;span style=&quot;color: rgb(84 , 84 , 84) ; font-family: &amp;#34;arial&amp;#34; , sans-serif ; font-size: 14px ; text-align: left ; white-space: normal&quot;&gt;⑥&lt;/span&gt;&lt;span style=&quot;color: rgb(84 , 84 , 84) ; font-family: &amp;#34;arial&amp;#34; , sans-serif ; font-size: 14px ; text-align: left ; white-space: normal&quot;&gt;&amp;nbsp;&lt;/span&gt;PSH,ACK seq=server_isn +1:server_isn+1+resp_len&lt;br&gt;ack=client_isn + 1 + req_len" style="text;html=1;resizable=0;points=[];align=center;verticalAlign=middle;labelBackgroundColor=#ffffff;direction=west;rotation=353;" vertex="1" connectable="0" parent="OfDiPPnVkdEDQQDzH8xl-1">
          <mxGeometry x="0.1167" y="-1" relative="1" as="geometry">
            <mxPoint y="-21.5" as="offset"/>
          </mxGeometry>
        </mxCell>
        <mxCell id="OfDiPPnVkdEDQQDzH8xl-6" value="" style="endArrow=classic;html=1;" edge="1" parent="1">
          <mxGeometry width="50" height="50" relative="1" as="geometry">
            <mxPoint x="80" y="580" as="sourcePoint"/>
            <mxPoint x="420" y="640" as="targetPoint"/>
          </mxGeometry>
        </mxCell>
        <mxCell id="OfDiPPnVkdEDQQDzH8xl-7" value="&lt;span style=&quot;color: rgb(84 , 84 , 84) ; font-family: &amp;#34;arial&amp;#34; , sans-serif ; font-size: 14px ; white-space: normal ; background-color: rgb(255 , 255 , 255)&quot;&gt;⑦&lt;/span&gt;ACK&amp;nbsp;ack=server_isn+1+resp_len" style="text;html=1;resizable=0;points=[];autosize=1;align=left;verticalAlign=top;spacingTop=-4;rotation=11;" vertex="1" parent="1">
          <mxGeometry x="203" y="590" width="210" height="20" as="geometry"/>
        </mxCell>
        <mxCell id="OfDiPPnVkdEDQQDzH8xl-12" value="" style="endArrow=none;html=1;dashed=1;dashPattern=1 1;" edge="1" parent="1">
          <mxGeometry width="50" height="50" relative="1" as="geometry">
            <mxPoint x="520" y="160" as="sourcePoint"/>
            <mxPoint x="420" y="160" as="targetPoint"/>
          </mxGeometry>
        </mxCell>
      </root>
    </mxGraphModel>
  </diagram>
</mxfile>
